General                          : ChattChitto RG - Movies [R2L]
==========
Complete name                    : Futurama Benders Big Score 2007 720p HDTVRip H264 [ChattChitto RG]
Format                           : MPEG-4
Format profile                   : Base Media
Codec ID                         : isom
File size                        : 1.49 GiB
Duration                         : 1h 28mn
Overall bit rate                 : 2 413 Kbps
Encoded date                     : UTC 2011-01-20 17:36:36

Video
==========
ID                               : 1
Format                           : AVC
Format/Info                      : Advanced Video Codec
Format profile                   : High@L4.0
Format settings, CABAC           : Yes
Format settings, ReFrames        : 4 frames
Codec ID                         : avc1
Codec ID/Info                    : Advanced Video Coding
Duration                         : 1h 28mn
Bit rate mode                    : Variable
Bit rate                         : 2 100 Kbps
Maximum bit rate                 : 31.1 Mbps
Width                            : 1 280 pixels
Height                           : 720 pixels
Display aspect ratio             : 16:9
Frame rate mode                  : Constant
Frame rate                       : 23.976 fps
Resolution                       : 24 bits
Colorimetry                      : 4:2:0
Scan type                        : Progressive
Bits/(Pixel*Frame)               : 0.095
Stream size                      : 1.29 GiB (87%)
Writing library                  : x264 core 84 r1400M 20fa784
Encoded date                     : UTC 2011-01-20 06:35:03

Audio
==========
ID                               : 2
Format                           : AAC
Format/Info                      : Advanced Audio Codec
Format version                   : Version 4
Format profile                   : LC
Format settings, SBR             : No
Codec ID                         : 40
Duration                         : 1h 28mn
Bit rate mode                    : Variable
Bit rate                         : 309 Kbps
Maximum bit rate                 : 452 Kbps
Channel(s)                       : 6 channels
Channel positions                : Front: L C R, Rear: L R, LFE
Sampling rate                    : 48.0 KHz
Resolution                       : 16 bits
Stream size                      : 195 MiB (13%)
Encoded date                     : UTC 2011-01-20 17:37:21

Subtitles                        : None


----------------------------------------------------
IMDB Link: http://www.imdb.com/title/tt0471711/
----------------------------------------------------



Screen Shots:
==============    
http://bayimg.com/CAdgCAAdH 
http://bayimg.com/CaDGEAaDh 
http://bayimg.com/cadgkaAdH 
http://bayimg.com/cadGLaadH 
http://bayimg.com/cADgnAADh



ScreenShots Comparison:
=========================  
http://screenshotcomparison.com/comparison/21634



Plot:
======
Planet Express sees a hostile takeover and Bender falls into the hands of criminals where he is used to fulfill their schemes.



Release Info:
==============
original name .... : Futurama Benders Big Score 2007 720p HDTVRip H264 [ChattChitto RG]
ripper.............: DON
encoder............: Recalled2Life (R2L)
video codec........: H264/.MP4
video bitrate......: 2100 Kbps
audio codec........: AAC-LC
aspect ratio.......: 1.78:1
resolution.........: 1280 x 720
genre..............: Animation | Action | Adventure
runtime............: 1h 28mn
language...........: English
rating.............: None
subtitles..........: None
sample.............: Yes [15.3 MB]
2ch Audio..........: 2ch Audio for XBox Viewers
Compatibility .....: XBox | PS3 | WD Live



Source:
========
Futurama.Benders.Big.Score.2007.720p.HDTV.x264-DON  THANKS!



Notes:
=======
ChattChitto RG Encourages Burning this Film with ConvertXtoDVD and Playing with VLC media player.
XBox 360 | PS3 | WD Live - Compatible 
Enhanced for your viewing pleasure ;)